<?xml version="1.0" standalone="no"?>
<!DOCTYPE svg PUBLIC "-//W3C//DTD SVG 20010904//EN"
 "http://www.w3.org/TR/2001/REC-SVG-20010904/DTD/svg10.dtd">
<svg version="1.0" xmlns="http://www.w3.org/2000/svg"
 width="300.000000pt" height="300.000000pt" viewBox="0 0 300.000000 300.000000"
 preserveAspectRatio="xMidYMid meet">
<metadata>
Created by potrace 1.11, written by Peter Selinger 2001-2013
</metadata>
<g transform="translate(0.000000,300.000000) scale(0.100000,-0.100000)"
fill="#000000" stroke="none">
<path d="M882 2653 c-55 -19 -141 -98 -175 -161 -14 -27 -32 -80 -39 -119 -10
-64 -10 -76 9 -133 l20 -62 -24 -71 c-30 -90 -54 -227 -52 -297 2 -54 0 -58
-78 -170 -76 -109 -303 -457 -303 -464 0 -1 75 -6 166 -10 241 -10 346 -25
499 -73 167 -52 342 -150 483 -272 l73 -63 58 50 c101 88 213 162 326 218 192
93 348 126 702 147 l201 12 -254 308 -254 308 0 62 c0 85 -23 184 -64 278 -33
78 -34 80 -19 127 52 170 -97 369 -291 389 -56 6 -171 -21 -210 -50 -14 -10
-30 -12 -60 -6 -51 10 -307 10 -361 1 -34 -7 -47 -4 -85 20 -24 16 -60 33 -80
38 -50 14 -138 11 -188 -7z"/>
<path d="M224 1067 c-10 -27 4 -65 31 -83 19 -13 64 -19 183 -25 234 -12 322
-34 517 -130 158 -78 287 -171 411 -295 l100 -101 73 79 c148 159 356 297 581
383 133 52 215 65 424 72 181 6 191 7 213 29 14 14 23 35 23 54 l0 30 -157 0
c-248 0 -388 -20 -559 -81 -191 -67 -407 -197 -547 -328 -35 -32 -52 -42 -61
-36 -8 6 -44 36 -82 68 -143 121 -324 227 -499 292 -152 57 -254 75 -462 82
-164 5 -183 4 -189 -10z"/>
</g>
</svg>
